<?xml version="1.0" encoding="UTF-8"?>
<svg id="Layer_2" data-name="Layer 2" xmlns="http://www.w3.org/2000/svg" viewBox="0 0 243.688446 88.522362">
  <g id="Layer_1-2" data-name="Layer 1">
    <g id="texto">
      <g>
        <path d="M94.143135.144706c14.555374-1.352532,23.071277,9.148343,22.033647,23.121881-.89765,12.088455-10.589033,20.101085-22.706226,18.251376-22.455632-3.427888-21.392069-39.322939.67258-41.373258ZM95.030359,4.803821c-11.387375,1.171349-14.402982,14.671349-10.844174,23.796987,4.838805,12.407858,22.964191,10.969888,25.886972-2.332989,2.352884-10.709021-2.359557-22.768645-15.042798-21.463998Z"/>
        <g>
          <polygon points="43.539595 .744035 43.539595 17.166495 64.64297 17.166495 64.64297 .744035 69.974349 .744035 69.974349 41.134408 64.64297 41.134408 64.64297 22.048848 43.539595 22.048848 43.539595 41.134408 37.986075 41.134408 37.986075 .744035 43.539595 .744035"/>
          <path d="M5.55352,24.711949v16.089572c0,.023539-.30965.332888-.333211.332888H.333211c-.023562,0-.333211-.309349-.333211-.332888V.744035c6.08992.279031,12.504399-.370011,18.558026-.009262,9.405309.560484,15.120191,7.191237,11.657859,16.547417-3.666917,9.909025-16.391533,6.933367-24.662366,7.429758ZM5.55352,19.829596h13.217377c.59562,0,2.455261-.62991,3.077854-.919786,6.153534-2.865054,3.865691-13.283422-1.96715-13.283422H5.55352v14.203208Z"/>
        </g>
      </g>
      <g>
        <g>
          <polygon points="202.148118 48.236012 202.148118 52.89644 178.156913 52.89644 178.156913 65.324247 200.815274 65.324247 200.815274 69.984675 178.156913 69.984675 178.156913 83.744033 203.258822 83.744033 203.258822 88.40446 172.825534 88.40446 172.825534 48.236012 202.148118 48.236012"/>
          <path d="M214.699073,48.236012c3.628283,4.843007,7.287452,9.706795,10.442869,14.871348.310794.071127.3675-.192917.517423-.370964,3.322549-3.94582,6.167545-9.137767,9.585097-12.997195.407687-.4604,1.089887-.88279,1.44655-1.503188h5.886731l-14.00745,19.184876,15.118154,20.983572h-6.553153c-4.165175-5.331807-8.178585-10.936267-11.888056-16.644281-4.305116,5.400304-7.975597,11.439609-12.547431,16.644281h-6.331013l15.540622-20.973468-13.763495-19.19498h6.553153Z"/>
        </g>
        <path d="M131.729488,88.40446v-40.168448h18.770897c1.095314,0,4.191021.912398,5.278454,1.384425,10.281981,4.463146,11.40445,20.791496,7.240687,29.764273-5.858251,12.624342-20.097302,8.207386-31.290038,9.019751ZM137.060867,83.744033c2.768996-.094502,5.570856.123626,8.339442.009154,4.899243-.202568,9.438954-.575003,12.053833-5.26803,3.130463-5.618367,3.245371-16.867071-1.073619-21.920366-2.628477-3.075365-5.552302-3.479893-9.425244-3.677489-3.252912-.165962-6.630312.142032-9.894412.009138v30.847593Z"/>
      </g>
      <g>
        <path d="M152.388582.744035v4.549465c0,.023539-.30965.332888-.333211.332888h-13.217377v35.175132c0,.023539-.30965.332888-.333211.332888h-4.887097c-.023562,0-.333211-.309349-.333211-.332888V5.626388h-13.328447V.744035h32.432555Z"/>
        <path d="M191.792411,10.64983c7.536362,14.584368-2.523228,33.26756-20.160243,30.90005-22.700147-3.047161-21.794694-39.498636.44452-41.443001,8.895119-.777696,15.654628,2.683922,19.715723,10.542951ZM172.775998,4.800175c-10.298573,1.163644-13.274664,11.17809-11.885511,20.184166,2.409394,15.620442,23.481647,16.322081,26.848479,1.422015,2.3903-10.578381-2.221859-23.045809-14.962967-21.606181Z"/>
      </g>
    </g>
  </g>
</svg>